<svg height="92.859" viewBox="0 0 130 92.859" width="130" xmlns="http://www.w3.org/2000/svg"><path d="M42.899 21.162q0 9.792-5.709 15.492t-15.755 5.7q-10.015 0-15.723-5.7T0 21.109q0-9.82 5.76-15.464T21.499.004q10.043 0 15.723 5.67t5.677 15.488zm-39.254 0q0 8.836 4.593 13.663t13.2 4.826q8.663 0 13.242-4.784t4.577-13.7q0-8.893-4.577-13.635T21.502 2.791q-8.568 0-13.21 4.784T3.645 21.162zm72.51-8.696a10.357 10.357 0 01-4.726 9.147q-4.727 3.178-13.393 3.179h-7.419v17h-3.345V.647h11.75q17.131 0 17.133 11.819zm-25.538 9.849h6.6q8.106 0 11.718-2.294t3.61-7.443q0-4.755-3.414-7.049T58.563 3.235h-7.946z" fill="#040505"/><path d="M130 .724v1.172a8.417 8.417 0 00-2.468.482q-1.519.631-3.48 5.231l-14.4 34.574h-.98L92.724 8.359q-2.787-5.711-4.747-6.163a8.991 8.991 0 00-2.12-.3V.724h17.246v1.172l-1.9.121q-2.974.151-2.974 1.894a3.873 3.873 0 00.315 1.5q.76 1.954 2.343 5.352l9.81 20.8 9.529-22.579a13.2 13.2 0 001.232-4.57 1.951 1.951 0 00-.981-1.774 8.946 8.946 0 00-3.764-.752V.716z" fill="#fff"/><path d="M80.714.376v41.413" fill="none" stroke="#040505" stroke-miterlimit="10"/><path d="M10.241 50.777a5.65 5.65 0 012.212.443 5.506 5.506 0 011.837 1.25 5.388 5.388 0 011.441 3.9 6.161 6.161 0 01-.475 2.437 4.829 4.829 0 01-1.358 1.852 5.623 5.623 0 01-3.748 1.306 6.047 6.047 0 01-2.274-.431 5.3 5.3 0 01-1.841-1.215 4.907 4.907 0 01-1.07-1.768 6.485 6.485 0 01-.387-2.236 5.924 5.924 0 01.471-2.378 4.9 4.9 0 011.353-1.832 5.73 5.73 0 013.839-1.328zm-.141.586a3.192 3.192 0 00-2.383 1.052 4.03 4.03 0 00-.87 1.646 7.853 7.853 0 00-.329 2.295 7.247 7.247 0 00.775 3.411 2.929 2.929 0 001.258 1.218 3.346 3.346 0 001.616.4 3.089 3.089 0 002.224-.863 3.435 3.435 0 00.841-1.171 8.129 8.129 0 00.558-3.078 6.721 6.721 0 00-.783-3.276 3.1 3.1 0 00-1.266-1.227 3.345 3.345 0 00-1.641-.407zm6.329 4.051v-.261q1.325-.411 2.524-.871l.083.032v1.489a5.809 5.809 0 011-1.139 1.7 1.7 0 011.041-.38.941.941 0 01.725.261.831.831 0 01.217.594q0 .728-.658.728a1.091 1.091 0 01-.691-.317.811.811 0 00-.441-.245 1.106 1.106 0 00-.767.459 1.372 1.372 0 00-.425.87v3.648q.008.807.383 1.005a2.6 2.6 0 001.066.206v.245h-4.09v-.245a3.153 3.153 0 00.95-.269q.25-.158.258-.847v-4.052q0-.688-.216-.87a.545.545 0 00-.367-.1 3.314 3.314 0 00-.592.059zm11.237 6.48l-.067-.047v-1.029a2.509 2.509 0 01-2.19 1.076 2.936 2.936 0 01-2.907-2.03 4.349 4.349 0 01-.242-1.46 4.684 4.684 0 01.371-1.848 3.805 3.805 0 011.029-1.436 3.232 3.232 0 012.157-.839 2.57 2.57 0 011.2.285 4.455 4.455 0 01.583.412v-2.532a.974.974 0 00-.158-.681 1 1 0 00-.625-.143q-.175 0-.375.016v-.261q1.441-.356 2.507-.712l.083.031v9.2q0 .633.175.767a.921.921 0 00.575.151q.091 0 .391-.016v.261zm-.067-1.812v-3.727a1.577 1.577 0 00-.591-1.195 1.677 1.677 0 00-1.15-.427 1.89 1.89 0 00-1.408.625 2.472 2.472 0 00-.525 1 4.8 4.8 0 00-.2 1.4 4.923 4.923 0 00.262 1.646 2.538 2.538 0 00.712 1.124 2.084 2.084 0 001.383.522 1.636 1.636 0 001.233-.483.806.806 0 00.284-.484zm5.723-5.8l.067.048v5.753q.016 1.029.308 1.195a2.249 2.249 0 00.958.214v.245h-4.048v-.245a2.625 2.625 0 001.008-.19q.325-.166.341-1.219v-3.759q0-.688-.217-.87a.5.5 0 00-.341-.1 4.483 4.483 0 00-.591.048l-.133.016v-.245zm-.783-3.616a.842.842 0 01.641.277.8.8 0 01-.058 1.163.873.873 0 01-.6.214.829.829 0 01-.858-.831.81.81 0 01.3-.617.8.8 0 01.575-.206zm2.807 4.613v-.269q1.241-.348 2.357-.728l.117.032v1.282a8.8 8.8 0 011.158-.918 2.538 2.538 0 011.316-.4 1.909 1.909 0 011.416.554 2.581 2.581 0 01.6 1.875v3.711q.008.7.275.863a1.683 1.683 0 00.766.206v.245h-3.548v-.245a1.573 1.573 0 00.708-.182q.35-.206.366-1.179v-3.383a1.879 1.879 0 00-.308-1.179 1.13 1.13 0 00-.941-.388 1.924 1.924 0 00-1.058.356 6.965 6.965 0 00-.7.562v4.558a.7.7 0 00.25.617 1.941 1.941 0 00.874.222v.245h-3.615v-.245a1.7 1.7 0 00.741-.182q.3-.182.317-1.029v-4.02q0-.752-.225-.942a.587.587 0 00-.4-.1 1.4 1.4 0 00-.466.061zm15.209 3.798l.275.119a4.614 4.614 0 01-1.183 1.757 3.52 3.52 0 01-2.424.942 3.01 3.01 0 01-2.307-.926 3.1 3.1 0 01-.65-1.164 5.13 5.13 0 01.087-3.363 3.307 3.307 0 01.929-1.329 3.451 3.451 0 012.3-.839 2.7 2.7 0 012.191.934 2.808 2.808 0 01.591 1.195 8.352 8.352 0 01.142.847H45.25a5.052 5.052 0 00.475 2.136 2.344 2.344 0 002.2 1.393 2.689 2.689 0 001.941-.815 5.523 5.523 0 00.689-.887zm-5.272-2.35h3.482a3.163 3.163 0 00-.475-1.393 1.384 1.384 0 00-1.191-.475q-1.533 0-1.816 1.868zM9.858 77.365l-.067-.047V76.29a2.79 2.79 0 01-.95.819 2.758 2.758 0 01-1.241.257 2.936 2.936 0 01-2.907-2.03 4.354 4.354 0 01-.241-1.46 4.685 4.685 0 01.371-1.848 3.8 3.8 0 011.029-1.436 3.23 3.23 0 012.157-.839 2.566 2.566 0 011.2.285 4.5 4.5 0 01.583.411v-2.532a.973.973 0 00-.158-.68 1 1 0 00-.627-.147q-.175 0-.375.016v-.261q1.441-.356 2.507-.712l.083.032v9.195q0 .633.175.768a.92.92 0 00.575.15q.091 0 .391-.016v.261zm-.067-1.812v-3.727a1.578 1.578 0 00-.591-1.2 1.678 1.678 0 00-1.149-.427 1.89 1.89 0 00-1.408.625 2.471 2.471 0 00-.525 1 4.8 4.8 0 00-.2 1.4 4.917 4.917 0 00.262 1.646 2.533 2.533 0 00.712 1.124 2.082 2.082 0 001.383.522 1.636 1.636 0 001.233-.483.807.807 0 00.283-.481zm9.687-1.005l.275.119a4.615 4.615 0 01-1.183 1.757 3.52 3.52 0 01-2.424.942 3.008 3.008 0 01-2.307-.926 3.1 3.1 0 01-.65-1.163 5.129 5.129 0 01.087-3.363 3.312 3.312 0 01.929-1.329 3.452 3.452 0 012.3-.839 2.7 2.7 0 012.191.934 2.811 2.811 0 01.591 1.2 8.31 8.31 0 01.142.846h-5.256a5.055 5.055 0 00.475 2.137 2.344 2.344 0 002.2 1.392 2.69 2.69 0 001.941-.815 5.529 5.529 0 00.689-.892zm-5.272-2.35h3.482a3.157 3.157 0 00-.475-1.393 1.383 1.383 0 00-1.191-.475q-1.533.001-1.816 1.868zm13.902-1.274h-1.416a3.2 3.2 0 01.325 1.361 2.2 2.2 0 01-.816 1.828 2.9 2.9 0 01-1.849.681q-.025 0-.966-.079a1.435 1.435 0 00-.641.4 1.035 1.035 0 00-.383.617q0 .38 1.333.435l2.2.1a2.231 2.231 0 011.649.649A1.617 1.617 0 0127.961 78a2.064 2.064 0 01-.941 1.63 5.141 5.141 0 01-1.6.811 6.25 6.25 0 01-1.9.3 4.644 4.644 0 01-2.107-.475 1.67 1.67 0 01-.616-.487 1 1 0 01-.225-.613 1.842 1.842 0 01.7-1.227 8.839 8.839 0 01.966-.744 2.62 2.62 0 01-.725-.435.554.554 0 01-.175-.419 1.3 1.3 0 01.45-.823q.092-.087.625-.554.225-.2.441-.4a3.232 3.232 0 01-1.049-.7 2.15 2.15 0 01-.533-1.48 2.4 2.4 0 01.891-1.923 2.929 2.929 0 011.949-.72 4.02 4.02 0 011.366.245l.383.135a2.722 2.722 0 00.933.166h1.316zm-5.514 6.315a6.772 6.772 0 00-.6.744 1.213 1.213 0 00-.233.649.848.848 0 00.35.673 2.3 2.3 0 00.875.36 5.35 5.35 0 001.258.146 5.171 5.171 0 002.465-.5 1.216 1.216 0 00.775-1.068.62.62 0 00-.2-.483 3.4 3.4 0 00-1.908-.309q-.641 0-1.474-.063t-1.308-.148zm.092-5.5v.047a2.989 2.989 0 00.741 2.2 1.359 1.359 0 001.008.4 1.12 1.12 0 00.875-.34 1.581 1.581 0 00.391-1.124 3.917 3.917 0 00-.508-1.954 1.358 1.358 0 00-1.241-.767 1.2 1.2 0 00-.916.38 1.639 1.639 0 00-.35 1.159zm6.113-4.63v-.261q1.532-.356 2.715-.712l.067.032v9.678q.017.759.3.918a2.37 2.37 0 00.983.2v.245h-4.032v-.245a2.324 2.324 0 00.991-.237q.316-.19.325-.925v-7.731q0-.672-.2-.846a.767.767 0 00-.508-.143q-.233 0-.55.024zm7.405 2.643l.067.047v5.753q.016 1.029.308 1.195a2.25 2.25 0 00.958.214v.245h-4.048v-.245a2.619 2.619 0 001.008-.19q.325-.166.342-1.218V71.79q0-.689-.217-.871a.5.5 0 00-.341-.1 4.5 4.5 0 00-.591.048l-.133.016v-.245zm-.783-3.616a.841.841 0 01.641.277.8.8 0 01-.058 1.163.872.872 0 01-.6.214.83.83 0 01-.858-.831.811.811 0 01.3-.617.8.8 0 01.576-.206zm10.249 6.355v2.951q.017 1.021.383 1.219a1.459 1.459 0 00.608.2q.258.024.616.04v.309h-4.781v-.309a2.6 2.6 0 001.108-.269.565.565 0 00.192-.214 2.768 2.768 0 00.133-1.155v-7.019q-.017-1.005-.333-1.187a2.881 2.881 0 00-1.1-.269v-.309h4.506a6.965 6.965 0 013.04.641 2.522 2.522 0 011.424 2.287 2.763 2.763 0 01-.8 1.97 3.588 3.588 0 01-1.8.973 9.061 9.061 0 01-2.016.19q-.6-.002-1.18-.049zm0-.649q.491.048.95.047a3.986 3.986 0 001.891-.372 2.1 2.1 0 001.1-2 2.077 2.077 0 00-1.083-2 4.9 4.9 0 00-2.3-.435.632.632 0 00-.458.119.7.7 0 00-.1.435zm11.407.277h-.258a5.048 5.048 0 00-.417-1.147 1.627 1.627 0 00-1.466-.846 1.321 1.321 0 00-1.033.388 1.021 1.021 0 00-.275.712 1.24 1.24 0 00.733 1.108l1.841 1.037a3.428 3.428 0 011.2 1.013 1.609 1.609 0 01.233.91 1.81 1.81 0 01-.708 1.464 2.568 2.568 0 01-1.674.609 5.861 5.861 0 01-1.274-.166 3.939 3.939 0 00-.783-.118.453.453 0 00-.383.19h-.225v-2.524h.275a4.115 4.115 0 00.733 1.693 1.819 1.819 0 001.433.57 1.457 1.457 0 001.133-.4 1.064 1.064 0 00.283-.76 1.392 1.392 0 00-.891-1.211l-.983-.538a4.392 4.392 0 01-1.749-1.393 1.918 1.918 0 01-.25-.942 1.847 1.847 0 01.658-1.448 2.45 2.45 0 011.674-.562 3.331 3.331 0 011.191.222 1.408 1.408 0 00.45.1.378.378 0 00.275-.182h.183zm4.257-2.367l.067.047v5.753q.017 1.029.308 1.195a2.251 2.251 0 00.958.214v.245h-4.048v-.245a2.617 2.617 0 001.008-.19q.325-.166.342-1.218V71.79q0-.689-.217-.871a.5.5 0 00-.341-.1 4.505 4.505 0 00-.591.048l-.133.016v-.245zm-.783-3.616a.841.841 0 01.641.277.8.8 0 01-.058 1.163.871.871 0 01-.6.214.83.83 0 01-.858-.831.811.811 0 01.3-.617.8.8 0 01.575-.206zm9.321 8.539l.241.15a6.206 6.206 0 01-1.3 1.78 3.131 3.131 0 01-2.066.76 3.076 3.076 0 01-2.3-.973 3.112 3.112 0 01-.691-1.152 4.377 4.377 0 01-.25-1.483 3.812 3.812 0 011.333-3.1 3.664 3.664 0 012.4-.91 3.614 3.614 0 011.807.451 1.776 1.776 0 01.591.55 1.207 1.207 0 01.233.677.617.617 0 01-.2.451.847.847 0 01-.608.229q-.6 0-.816-.752l-.1-.356a1.09 1.09 0 00-.341-.625 1.217 1.217 0 00-.658-.158 2.115 2.115 0 00-1.616.689 2.481 2.481 0 00-.516.93 3.828 3.828 0 00-.192 1.207 4.057 4.057 0 00.262 1.472 2.607 2.607 0 00.729 1.076 2.51 2.51 0 003.332-.047 6.212 6.212 0 00.726-.866zm5.041-4.922a3.667 3.667 0 012.8 1.132 3.531 3.531 0 01.958 2.524 4.225 4.225 0 01-.354 1.7 3.806 3.806 0 01-.987 1.369 3.826 3.826 0 01-5.164-.245 3.792 3.792 0 01-1.016-2.682 3.873 3.873 0 01.792-2.445 3.544 3.544 0 012.971-1.353zm-.258.451a1.824 1.824 0 00-1.333.578 2.686 2.686 0 00-.641 1.962 6.26 6.26 0 00.741 3.126 1.859 1.859 0 001.7 1.044 1.684 1.684 0 001.216-.483 3.281 3.281 0 00.8-2.469 5.439 5.439 0 00-.633-2.627 2.155 2.155 0 00-.779-.835 2.018 2.018 0 00-1.073-.296zm4.854-3.095v-.261q1.533-.356 2.715-.712l.067.032v9.678q.016.759.3.918a2.372 2.372 0 00.983.2v.245h-4.031v-.245a2.323 2.323 0 00.991-.237q.316-.19.325-.925v-7.731q0-.672-.2-.846a.767.767 0 00-.508-.143q-.233 0-.55.024zm8.671 2.644a3.667 3.667 0 012.8 1.132 3.531 3.531 0 01.958 2.524 4.223 4.223 0 01-.354 1.7 3.8 3.8 0 01-.987 1.369 3.825 3.825 0 01-5.164-.245 3.791 3.791 0 01-1.016-2.682 3.872 3.872 0 01.791-2.445 3.544 3.544 0 012.972-1.353zm-.258.451a1.824 1.824 0 00-1.333.578 2.687 2.687 0 00-.641 1.962 6.258 6.258 0 00.741 3.126 1.858 1.858 0 001.7 1.044 1.685 1.685 0 001.216-.483 3.282 3.282 0 00.8-2.469 5.439 5.439 0 00-.633-2.627 2.157 2.157 0 00-.779-.835 2.02 2.02 0 00-1.071-.296zm12.544.72H99.05a3.209 3.209 0 01.325 1.361 2.2 2.2 0 01-.816 1.828 2.9 2.9 0 01-1.849.681q-.025 0-.966-.079a1.435 1.435 0 00-.641.4 1.034 1.034 0 00-.383.617q0 .38 1.333.435l2.2.1a2.231 2.231 0 011.649.649 1.616 1.616 0 01.417 1.084 2.064 2.064 0 01-.942 1.63 5.14 5.14 0 01-1.6.811 6.251 6.251 0 01-1.9.3 4.645 4.645 0 01-2.107-.475 1.668 1.668 0 01-.616-.487 1 1 0 01-.225-.613 1.842 1.842 0 01.7-1.227 8.843 8.843 0 01.966-.744 2.611 2.611 0 01-.724-.435.553.553 0 01-.175-.419 1.3 1.3 0 01.45-.823q.092-.087.625-.554.225-.2.442-.4a3.232 3.232 0 01-1.05-.7 2.15 2.15 0 01-.533-1.48 2.4 2.4 0 01.891-1.923 2.928 2.928 0 011.949-.72 4.021 4.021 0 011.366.245l.383.135a2.72 2.72 0 00.933.166h1.316zm-5.514 6.315a6.742 6.742 0 00-.6.744 1.214 1.214 0 00-.233.649.847.847 0 00.35.673 2.3 2.3 0 00.875.36 5.351 5.351 0 001.258.146 5.17 5.17 0 002.465-.5 1.216 1.216 0 00.775-1.068.62.62 0 00-.2-.483 3.4 3.4 0 00-1.907-.309q-.642 0-1.474-.063t-1.309-.148zm.092-5.5v.047a2.989 2.989 0 00.741 2.2 1.36 1.36 0 001.008.4 1.121 1.121 0 00.875-.34 1.581 1.581 0 00.392-1.124 3.917 3.917 0 00-.508-1.954 1.358 1.358 0 00-1.241-.767 1.2 1.2 0 00-.916.38 1.638 1.638 0 00-.351 1.159zm8.928-1.987l.067.047v5.753q.017 1.029.308 1.195a2.25 2.25 0 00.958.214v.245h-4.048v-.245a2.616 2.616 0 001.008-.19q.325-.166.342-1.218V71.79q0-.689-.217-.871a.5.5 0 00-.342-.1 4.5 4.5 0 00-.591.048l-.133.016v-.245zm-.783-3.616a.84.84 0 01.641.277.8.8 0 01-.058 1.163.871.871 0 01-.6.214.83.83 0 01-.858-.831.811.811 0 01.3-.617.8.8 0 01.576-.206zm-93.327 26.7l-.067-.048v-1.029a2.514 2.514 0 01-2.192 1.077 2.939 2.939 0 01-2.909-2.031 4.359 4.359 0 01-.242-1.461 4.689 4.689 0 01.371-1.849 3.808 3.808 0 011.029-1.437 3.234 3.234 0 012.159-.839 2.57 2.57 0 011.2.285 4.506 4.506 0 01.584.412v-2.535a.974.974 0 00-.158-.681 1 1 0 00-.625-.143q-.175 0-.375.016v-.261q1.442-.356 2.509-.713l.083.032v9.2q0 .634.175.768a.921.921 0 00.575.151q.092 0 .392-.016v.261zm-.067-1.813v-3.73a1.579 1.579 0 00-.592-1.2 1.679 1.679 0 00-1.15-.427 1.891 1.891 0 00-1.409.625 2.474 2.474 0 00-.525 1 4.805 4.805 0 00-.2 1.4 4.928 4.928 0 00.262 1.647 2.538 2.538 0 00.713 1.124 2.085 2.085 0 001.384.523 1.638 1.638 0 001.234-.483.807.807 0 00.283-.479zm9.268-1.006l.275.118a4.619 4.619 0 01-1.184 1.758 3.523 3.523 0 01-2.426.942 3.011 3.011 0 01-2.309-.927 3.1 3.1 0 01-.65-1.164 5.135 5.135 0 01.087-3.366 3.313 3.313 0 01.93-1.331 3.455 3.455 0 012.3-.839 2.705 2.705 0 012.192.935 2.813 2.813 0 01.592 1.2 8.375 8.375 0 01.142.847h-5.26a5.052 5.052 0 00.475 2.138 2.345 2.345 0 002.2 1.394 2.692 2.692 0 001.942-.816 5.56 5.56 0 00.694-.889zm-5.277-2.352h3.484a3.161 3.161 0 00-.475-1.394 1.384 1.384 0 00-1.192-.475q-1.533 0-1.816 1.868zm5.793-5.092v-.261q1.534-.356 2.717-.713l.067.032v9.685q.017.76.3.919a2.376 2.376 0 00.984.2v.245h-4.034v-.249a2.329 2.329 0 00.992-.238q.317-.19.325-.926v-7.736q0-.673-.2-.847a.77.77 0 00-.509-.143q-.233 0-.55.024zm19.736-.634v.309a2.243 2.243 0 00-.65.127q-.4.166-.917 1.378l-3.793 9.107h-.258l-4.2-8.909q-.734-1.5-1.25-1.623a2.35 2.35 0 00-.558-.079v-.309h4.543v.309l-.5.032q-.784.04-.784.5a1.013 1.013 0 00.083.4q.2.515.617 1.41l2.584 5.48 2.509-5.947a3.469 3.469 0 00.325-1.2.514.514 0 00-.258-.467 2.357 2.357 0 00-.992-.2v-.309zm5.483 8.078l.275.118a4.62 4.62 0 01-1.184 1.758 3.523 3.523 0 01-2.426.942 3.011 3.011 0 01-2.309-.927 3.1 3.1 0 01-.65-1.164 5.135 5.135 0 01.088-3.366 3.311 3.311 0 01.93-1.331 3.455 3.455 0 012.3-.839 2.7 2.7 0 012.192.935 2.813 2.813 0 01.592 1.2 8.339 8.339 0 01.142.847h-5.26a5.052 5.052 0 00.475 2.138 2.345 2.345 0 002.2 1.394 2.692 2.692 0 001.942-.816 5.546 5.546 0 00.693-.889zm-5.276-2.352h3.482a3.162 3.162 0 00-.475-1.394 1.384 1.384 0 00-1.192-.475q-1.533 0-1.815 1.868zm5.741-1.449v-.269q1.242-.349 2.359-.729l.117.031v1.283a8.783 8.783 0 011.159-.919 2.536 2.536 0 011.317-.4 1.911 1.911 0 011.417.554 2.582 2.582 0 01.6 1.877v3.714q.008.7.275.863a1.686 1.686 0 00.767.206v.245h-3.551v-.245a1.57 1.57 0 00.709-.182q.35-.206.367-1.18v-3.389a1.877 1.877 0 00-.309-1.18 1.13 1.13 0 00-.942-.388 1.926 1.926 0 00-1.059.356 7.032 7.032 0 00-.7.562v4.562a.7.7 0 00.25.618 1.948 1.948 0 00.875.222v.245h-3.616v-.245a1.693 1.693 0 00.742-.182q.3-.182.317-1.029v-4.023q0-.752-.225-.942a.588.588 0 00-.4-.1 1.405 1.405 0 00-.469.064zm14.794 3.801l.275.118a4.62 4.62 0 01-1.184 1.758 3.523 3.523 0 01-2.426.942 3.011 3.011 0 01-2.309-.927 3.1 3.1 0 01-.65-1.164 5.133 5.133 0 01.087-3.366 3.313 3.313 0 01.93-1.331 3.455 3.455 0 012.3-.839 2.7 2.7 0 012.192.935 2.81 2.81 0 01.592 1.2 8.307 8.307 0 01.142.847h-5.26a5.052 5.052 0 00.475 2.138 2.345 2.345 0 002.2 1.394 2.692 2.692 0 001.942-.816 5.567 5.567 0 00.694-.889zm-5.277-2.353h3.484a3.161 3.161 0 00-.475-1.394 1.384 1.384 0 00-1.192-.475q-1.533.001-1.817 1.869zm9.636-2.288v.523H62.69v4.641a1.729 1.729 0 00.333 1.283.83.83 0 00.55.174 1.422 1.422 0 001.034-.57l.217.182a2.425 2.425 0 01-2.059 1.227q-1.509 0-1.509-2.059v-4.878h-.909a.129.129 0 01-.067-.119q0-.135.292-.3a8.572 8.572 0 002-2.194q.117 0 .117.206v1.885zm4.058-.16a3.672 3.672 0 012.8 1.132 3.535 3.535 0 01.958 2.526 4.232 4.232 0 01-.354 1.7 3.809 3.809 0 01-.988 1.37 3.828 3.828 0 01-5.168-.245 3.794 3.794 0 01-1.012-2.683 3.874 3.874 0 01.792-2.447 3.546 3.546 0 012.972-1.353zm-.258.451a1.827 1.827 0 00-1.334.578 2.69 2.69 0 00-.642 1.964 6.265 6.265 0 00.742 3.128 1.86 1.86 0 001.7 1.045 1.687 1.687 0 001.217-.483 3.284 3.284 0 00.8-2.471 5.441 5.441 0 00-.634-2.629 2.158 2.158 0 00-.779-.835 2.02 2.02 0 00-1.07-.295z" fill="#171716"/></svg>